<?xml version="1.0" standalone="no"?>
<!DOCTYPE svg PUBLIC "-//W3C//DTD SVG 20010904//EN"
 "http://www.w3.org/TR/2001/REC-SVG-20010904/DTD/svg10.dtd">
<svg version="1.0" xmlns="http://www.w3.org/2000/svg"
 width="3333.000000pt" height="3333.000000pt" viewBox="0 0 3333.000000 3333.000000"
 preserveAspectRatio="xMidYMid meet">

<g transform="translate(0.000000,3333.000000) scale(0.100000,-0.100000)"
fill="#000000" stroke="none">
<path d="M16310 30540 c-1301 -31 -2577 -242 -3835 -637 -942 -296 -1821 -683
-2723 -1200 -1636 -937 -3082 -2220 -4217 -3738 -779 -1043 -1387 -2151 -1850
-3370 -567 -1493 -874 -3061 -904 -4623 -3 -188 -3 -342 0 -342 3 0 9 -154 12
-342 25 -1399 296 -2886 772 -4238 140 -398 341 -898 462 -1150 185 -384 273
-561 363 -730 1168 -2201 2866 -4015 4992 -5338 1699 -1057 3747 -1762 5758
-1981 627 -69 730 -73 1836 -78 1088 -5 1250 0 1419 41 457 112 824 438 984
874 60 162 74 250 72 442 -2 202 -18 320 -66 466 -70 213 -177 386 -340 550
-204 205 -418 320 -719 387 -101 22 -102 22 -1156 23 -1118 1 -1201 4 -1685
55 -2169 227 -4251 1111 -5930 2518 -467 391 -1015 939 -1406 1406 -1407 1679
-2291 3761 -2518 5930 -48 454 -79 1197 -67 1575 82 2469 990 4844 2575 6735
391 467 939 1015 1406 1406 1680 1408 3771 2295 5935 2519 508 52 735 61 1800
70 911 7 948 8 1041 29 351 77 641 259 845 530 167 223 274 532 274 790 -1
400 -145 756 -415 1026 -187 187 -389 301 -660 373 l-100 26 -815 2 c-448 0
-961 -2 -1140 -6z"/>
<path d="M17895 23604 c-255 -38 -479 -127 -662 -262 -86 -64 -5723 -5699
-5814 -5812 -159 -197 -254 -415 -296 -675 -14 -86 -14 -122 -4 -250 17 -232
55 -381 141 -560 104 -217 -63 -44 3009 -3115 1608 -1607 2872 -2863 2919
-2900 177 -139 359 -227 576 -278 98 -23 133 -26 291 -26 134 -1 203 4 268 17
508 103 911 461 1066 949 43 135 61 259 61 418 0 223 -42 411 -135 605 -61
127 -128 223 -242 350 -55 61 -796 803 -1646 1651 l-1547 1541 563 6 c309 4
3313 7 6675 7 4068 0 6112 3 6112 10 0 6 21 10 48 10 76 0 219 28 330 66 493
164 846 575 938 1094 17 98 12 307 -11 450 -59 357 -256 679 -551 897 -160
118 -387 215 -584 248 -87 15 -682 16 -6812 13 l-6718 -3 378 380 c207 209
933 938 1613 1620 679 682 1258 1269 1286 1305 143 184 242 409 278 632 19
119 19 337 0 456 -91 561 -525 1012 -1090 1134 -87 19 -367 33 -440 22z"/>
</g>
</svg>
